<svg xmlns="http://www.w3.org/2000/svg" viewBox="0 0 512 512">
  <defs>
    <linearGradient id="g" x1="0" y1="0" x2="1" y2="1">
      <stop offset="0%" stop-color="#1a1d2b"/>
      <stop offset="50%" stop-color="#2f3a66"/>
      <stop offset="100%" stop-color="#0f1117"/>
    </linearGradient>
    <filter id="s" x="-20%" y="-20%" width="140%" height="140%">
      <feDropShadow dx="0" dy="16" stdDeviation="18" flood-color="#000" flood-opacity=".45"/>
    </filter>
  </defs>
  <rect width="512" height="512" rx="112" fill="url(#g)"/>
  <g filter="url(#s)">
    <path d="M144 108h224c24 0 44 20 44 44v250c0 10-8 18-18 18H118c-10 0-18-8-18-18V152c0-24 20-44 44-44z" fill="#e8e8ec"/>
    <path d="M144 108h224c24 0 44 20 44 44v32H100v-32c0-24 20-44 44-44z" fill="#7c9cff"/>
    <path d="M150 236h212" stroke="#202433" stroke-width="24" stroke-linecap="round"/>
    <path d="M150 296h164" stroke="#202433" stroke-width="24" stroke-linecap="round"/>
    <path d="M150 356h118" stroke="#202433" stroke-width="24" stroke-linecap="round"/>
    <circle cx="352" cy="344" r="46" fill="#0f1117"/>
    <path d="M352 316v56M324 344h56" stroke="#7cffae" stroke-width="18" stroke-linecap="round"/>
  </g>
</svg>
